<svg xmlns="http://www.w3.org/2000/svg" width="348.692" height="242.344" viewBox="0 0 348.692 242.344"><defs><style>.a{stroke:#000;stroke-miterlimit:10;}</style></defs><g transform="translate(-1072.303 -23.932)"><path class="a" d="M1346.842,30.907a12.5,12.5,0,0,1,5.149,2.061,10.563,10.563,0,0,0,3.91,1.607c2.824.4,5.186,1.952,7.6,3.349.668.387,1.413.64,2.1,1,.76.392,1.682.57,2.076,1.486a.655.655,0,0,0,.279.289c.877.478,1.765.93,2.639,1.41.839.461,1.688.909,2.49,1.43a6.347,6.347,0,0,1,1.622,1.416A13.54,13.54,0,0,0,1377.225,47c.683.528,1.361,1.064,2.064,1.565a14.785,14.785,0,0,1,2.46,1.927c1.081,1.172,2.331,2.188,3.414,3.359,1.052,1.139,1.983,2.392,2.971,3.589a3.266,3.266,0,0,0,.568.6c1.548,1.109,2.328,2.772,3.215,4.364.332.595.727,1.152,1.057,1.747.64,1.149,1.247,2.315,1.882,3.467a28.867,28.867,0,0,0,1.7,2.96c.71.987,1.587,1.854,2.392,2.771a2.654,2.654,0,0,1,.446.513,11.642,11.642,0,0,0,3.674,3.771c.643.506,1.725.463,2.612.646.214.043.493-.085.66.01.742.423,1.441.922,2.181,1.348.458.264.987.4,1.438.676.57.346,1.091.768,1.54,1.092a5.257,5.257,0,0,0,.421,1.206,15.7,15.7,0,0,0,1.785,2.387c1.418,1.438,2.1,3.29,3.033,5,.364.668,1.091,1.3,1.1,1.961a7.388,7.388,0,0,0,.454,2.221c.419,1.343.715,2.746,1.146,4.055.877,2.666.645,5.338.7,8.022a2.137,2.137,0,0,0-.007.544c.8,2.627.145,5.286.174,7.927a7.942,7.942,0,0,1-.63,3.609,3.439,3.439,0,0,0-.159,1.218c-.017.225.07.463.035.683-.235,1.488-.4,3-.768,4.449-.3,1.182-.736,2.327-1,3.531-.152.7-.08,1.56-.84,2.064-.139.094-.162.424-.165.646-.033,2-1.066,3.689-1.7,5.5a38.2,38.2,0,0,1-1.675,3.753c-.887,1.856-1.809,3.7-2.721,5.54-.488.984-.935,1.993-1.5,2.933-.75,1.258-1.705,2.4-2.372,3.7-1.065,2.074-2.657,3.77-3.908,5.709a33.277,33.277,0,0,1-3.446,3.88c-.7.778-1.415,1.547-2.057,2.372a2.913,2.913,0,0,1-2.492,1.495c-.092.351-.187.65-.245.955a1.576,1.576,0,0,1-.872,1.306,3.1,3.1,0,0,0-.945.787c-.4.449-.718.957-1.406,1.014-.15.012-.3.189-.427.317-1.8,1.871-4.1,3.061-6.143,4.608-.668.506-1.59.551-2.318,1.089-.421.312-.97.434-1.214.989a.506.506,0,0,1-.322.24c-1.178.225-1.849,1.269-2.871,1.75-.942.443-1.819,1.029-2.767,1.453q-3.3,1.478-6.657,2.849c-.543.224-1.246.137-1.715.439a11.3,11.3,0,0,0-1.43.857c-1.081,1.012-2.505,1.119-3.733,1.7-1.775.842-3.629,1.517-5.463,2.226-.97.376-1.992.623-2.953,1.02-.924.382-1.776.934-2.694,1.324-1.177.5-2.38.952-3.594,1.358-1.124.374-2.28.653-3.415.992a4.444,4.444,0,0,0-.747.347,9.255,9.255,0,0,1-3.861,1.353c-.5.02-.985.459-1.478.7a3.486,3.486,0,0,1-1,.458c-1.82.225-3.474,1.049-5.249,1.433a2.656,2.656,0,0,0-.884.359,4.278,4.278,0,0,1-2.424.853c-.412,0-.8.436-1.237.531-2.362.513-4.732.977-7.1,1.466-.219.045-.421.159-.638.21q-.847.205-1.7.381a5.463,5.463,0,0,0-1.076.194,8.275,8.275,0,0,1-3.968.631,8.936,8.936,0,0,0-1.491.2c-1.46.15-2.919.284-4.379.423a.479.479,0,0,1-.137.012c-2.083-.463-4.162.241-6.26-.005-1.722-.2-3.474-.167-5.213-.21-1.209-.03-1.5.409-1.613,1.62a5.487,5.487,0,0,1-1.041,3.3,29.218,29.218,0,0,0-2.418,3.339,17.332,17.332,0,0,1-4.17,4.137,35.747,35.747,0,0,0-3.065,2.757,29.944,29.944,0,0,1-6.672,4.593c-1.269.72-2.534,1.458-3.85,2.086-3.046,1.451-5.953,3.225-9.263,4.092a15,15,0,0,0-2.017.868c-.421.182-.839.379-1.273.521-2,.656-4.012,1.283-6.009,1.947a9.334,9.334,0,0,0-1.5.678c-1.488.81-3.193.757-4.77,1.216-1.533.448-3.1.78-4.655,1.144-.571.134-1.159.189-1.73.319-.471.109-.93.266-1.39.414-.169.055-.321.212-.486.222a74.49,74.49,0,0,0-7.861,1.084c-2.124.357-4.2.98-6.3,1.486a2.708,2.708,0,0,1-.673.142c-1.822-.058-3.471.686-5.2,1.081a21.637,21.637,0,0,1-2.317.249,18.375,18.375,0,0,0-2.313.311c-.84.207-.98.541-.915,1.418a12.689,12.689,0,0,0,.96,4.539,1.16,1.16,0,0,1,.175.658c-.331,1.311.424,2.413.686,3.6.3,1.376.814,2.707,1.224,4.06a1.467,1.467,0,0,1,.1.676,3.055,3.055,0,0,0,.7,2.3,12.12,12.12,0,0,1,.7,1.588l-2.032.959c-.092.611.162,1.363-.748,1.57-.483.11-.822.062-1.019-.406a14.105,14.105,0,0,0-2.968-3.885,7.14,7.14,0,0,0-2.28-1.951c-.409-.182-.668-.713-.982-1.1a7.914,7.914,0,0,0-.843-1.062q-2.425-2.069-4.909-4.07a4.827,4.827,0,0,0-1.219-.623,17.992,17.992,0,0,1-4.451-2.1.977.977,0,0,0-.631-.225c-1.42.174-2.6-.531-3.853-.985-.087-.03-.2-.033-.257-.094-.962-1.057-2.313-1.223-3.583-1.607q-4.344-1.315-8.661-2.717c-2.477-.808-4.93-1.685-7.4-2.53a3.377,3.377,0,0,0-.656-.21c-4.673-.621-9.057-2.363-13.6-3.5a107.3,107.3,0,0,1-11.953-3.739,43.593,43.593,0,0,1-8.907-4.236,10.75,10.75,0,0,1-2.27-2.138c-1.193-1.451-2.268-3-3.4-4.493-.331-.436-.751-.807-1.052-1.259a26.912,26.912,0,0,1-3.283-5.837,15.406,15.406,0,0,0-1.613-2.836c-.087-.142-.4-.205-.6-.2a1.287,1.287,0,0,0-.645.229c-1.724,1.186-3.816.827-5.694,1.363a1.109,1.109,0,0,1-.548-.017,29.168,29.168,0,0,1-6.268-1.987c-2.824-1.438-5.724-2.726-8.593-4.077-.082-.04-.2-.047-.247-.11-1.047-1.481-2.948-1.53-4.286-2.572-1.293-1.009-2.846-1.674-4.212-2.6a29.566,29.566,0,0,1-5.914-4.66c-.685-.777-1.692-1.259-2.443-1.987-1.678-1.625-3.33-3.28-4.913-5a27.363,27.363,0,0,1-5.086-7.915,45.782,45.782,0,0,1-1.8-4.309,30.712,30.712,0,0,1-1.107-5.094,37.13,37.13,0,0,1-.2-4.939,20.372,20.372,0,0,1,1.6-7.472,8.111,8.111,0,0,0,.682-2.044c.227-2.134,1.592-3.566,2.959-4.985a2.061,2.061,0,0,0,.623-2.121c-.4-1.456-.912-2.884-1.232-4.357-.608-2.8-1.852-5.431-2.083-8.336-.137-1.72-.494-3.422-.741-5.134a1.617,1.617,0,0,1,.043-.543c.376-1.785.683-3.589,1.156-5.348.523-1.947,1.259-3.836,1.785-5.782a12.534,12.534,0,0,1,2.076-4.135,3.188,3.188,0,0,0,.376-.722,9.229,9.229,0,0,1,1.877-3.621,1.312,1.312,0,0,0,.184-.367,39.976,39.976,0,0,1,1.966-4.01c1.745-2.772,3.026-5.829,5.2-8.344a17.809,17.809,0,0,0,1.884-2.874,22.008,22.008,0,0,1,4.152-5.244,1.164,1.164,0,0,0,.259-.316,17.6,17.6,0,0,1,4.322-5.378,6.775,6.775,0,0,0,1.179-1.515,18.75,18.75,0,0,1,4.023-4.5c.847-.7,1.717-1.373,2.577-2.059.07-.057.165-.11.2-.187,1.066-2.445,3.791-3.15,5.345-5.082.055-.068.167-.167.219-.15,1.016.332,1.222-.621,1.752-1.072,1.288-1.1,2.58-2.186,3.9-3.245.962-.775,1.963-1.5,2.956-2.236a5.059,5.059,0,0,1,.926-.565c.7-.314,1.439-.558,2.138-.884,1.077-.5,1.274-.424,1.573.735.057.217.15.426.289.808q-2.487,1.39-4.97,2.777c-.312.175-.628.349-.932.538a5.579,5.579,0,0,1-1.039.658A3.5,3.5,0,0,0,1118,70.658a4.7,4.7,0,0,1-3,2.215,1.555,1.555,0,0,0-1.061.728,5.3,5.3,0,0,1-1.3,1.353,7.989,7.989,0,0,0-1.872,1.745,7.747,7.747,0,0,1-1.984,1.363l-1.039-.408c-.716.549-.2,1.273-.257,1.824a20.056,20.056,0,0,1-2.36,2.716,42.048,42.048,0,0,0-5.69,6.245c-1.032,1.243-2.32,2.358-2.857,3.975-1.437.805-1.891,2.413-2.9,3.579a33.483,33.483,0,0,0-3.813,5.5c-1.142,2.034-2.463,3.967-3.654,5.974-.418.7-.636,1.52-1.021,2.245-.945,1.777-1.929,3.534-2.9,5.3-.616,1.114-1.266,2.208-1.852,3.337-.18.347-.092.862-.316,1.157a11.571,11.571,0,0,0-1.652,4.3c-.528,2.018-1.156,4.008-1.722,6.016a13.093,13.093,0,0,0-.3,1.485,3.394,3.394,0,0,0-.124,1.226,38.922,38.922,0,0,0,1.49,5.844,55.114,55.114,0,0,0,3.561,7.838,2.824,2.824,0,0,1,.4,1.433,3.764,3.764,0,0,0,.812,2.285,9.358,9.358,0,0,1,.683,1.567c-1.166.4-1.172,1.373-1.334,2.285-2.659.1-3.795,1.862-4.71,4.005a35.581,35.581,0,0,0-1.663,5.226,19.643,19.643,0,0,0-.259,6.166,14.845,14.845,0,0,0,1.007,5.253l.727,1.618c.262.585.518,1.172.79,1.752s.558,1.142.837,1.714c.3.62.651,1.223.889,1.866a6.473,6.473,0,0,0,1.64,2.627,24.586,24.586,0,0,1,2.029,2.38,20.363,20.363,0,0,0,3.225,3.157,18.443,18.443,0,0,1,1.528,1.578c1.221,1.224,2.407,2.49,3.7,3.633a18.947,18.947,0,0,0,2.7,1.849c3.038,1.852,6.078,3.7,9.149,5.5,1.3.76,2.682,1.37,4.005,2.089.641.349,1.229.8,1.844,1.194a2.421,2.421,0,0,0,.59.347c2.225.641,4.271,1.8,6.644,2.069a8.471,8.471,0,0,0,3.09.2,11.169,11.169,0,0,0,3.912-1.523,10.886,10.886,0,0,1,3.564-1.316,2.744,2.744,0,0,0,1.281-.673c1-.984,2.111-1.862,3.15-2.813a2.121,2.121,0,0,0,.817-2.069,3.89,3.89,0,0,1,.149-1.111,4.425,4.425,0,0,1,2.063,2.412,2.627,2.627,0,0,1-.975,2.7c-1.074.954-2.219,1.825-3.307,2.766a22.9,22.9,0,0,0-1.667,1.628c-.473.5-.307,1.111-.209,1.7a19.235,19.235,0,0,0,2.539,6.034,39.346,39.346,0,0,0,4.82,6.49,15.819,15.819,0,0,0,5.049,4.361c.571.272,1.164.494,1.752.728,2.345.929,4.665,1.927,7.046,2.751,1.675.58,3.434.917,5.156,1.359.569.147,1.149.257,1.708.431,2.052.641,4.08,1.368,6.151,1.934,1.744.478,3.542.753,5.306,1.166,2.35.549,4.686,1.151,7.033,1.719.389.094.79.144,1.187.2.134.018.289-.053.409-.01a28.194,28.194,0,0,1,3.319,1.263c.628.321,1.283.443,1.9.688,1.393.553,2.964.551,4.247,1.415a1.76,1.76,0,0,0,.643.232c1.6.3,3.2.585,4.793.885.479.09.945.266,1.426.312.819.08,1.643.115,2.465.12.618,0,1.3-.02,1.585.593a4.181,4.181,0,0,0,2.1,2.068,23.748,23.748,0,0,1,2.26,1.4,24.08,24.08,0,0,0,2.2,1.406,16.656,16.656,0,0,1,3.459,2.418,5.276,5.276,0,0,0,3.481,1.678c.289,0,.581.381.933.63.141-.194.329-.334.323-.464a9.634,9.634,0,0,0-.688-4.155,10.265,10.265,0,0,1-.624-2.365c-.06-.266.035-.59-.08-.817a13.2,13.2,0,0,1-1.017-3.633c-.185-.979-.21-1.971-.411-2.939a.935.935,0,0,1,.6-1.111c.249-.117.473-.287.722-.4,1.306-.59,2.2-.337,2.831.962a1.061,1.061,0,0,0,1.37.718c3.482-.586,6.981-1.076,10.462-1.669a8.393,8.393,0,0,1,2.951-.366c.464.077,1-.434,1.527-.528,1.665-.291,3.344-.5,5.014-.76.67-.1,1.338-.219,2-.364q3.482-.762,6.956-1.552c1.779-.4,3.559-.793,5.328-1.233.616-.154,1.2-.444,1.8-.656,2.677-.95,5.381-1.829,8.028-2.858,2.385-.927,4.68-2.093,7.068-3.01,2.031-.778,3.786-2.033,5.705-2.993,2.433-1.218,4.474-3.065,6.859-4.354a16.656,16.656,0,0,0,5.042-4.187,1.08,1.08,0,0,1,.287-.3c2.372-1.231,3.668-3.557,5.406-5.413a4.134,4.134,0,0,0,.76-4.022,4.99,4.99,0,0,0-2.26-2.266,2.965,2.965,0,0,1-1.473-2.019,1.189,1.189,0,0,1,1.42-1.573,7.369,7.369,0,0,1,4.4,1.663c.852.808,2.024.76,3.113.885a10.811,10.811,0,0,1,1.617.239,3.183,3.183,0,0,0,2.155.042,2.343,2.343,0,0,1,.957-.094c.905.038,1.809.137,2.714.157,1.735.04,3.471.075,5.206.043.853-.015,1.7-.224,2.557-.277a66.787,66.787,0,0,0,10.826-1.709c2.175-.5,4.343-1.035,6.512-1.562a1.571,1.571,0,0,0,.508-.207,4.683,4.683,0,0,1,2.98-.863,1.246,1.246,0,0,0,.658-.162c2.435-1.418,5.293-1.777,7.766-3.088a11.315,11.315,0,0,1,3.724-1.233c.237-.035.448-.264.667-.408a4.417,4.417,0,0,1,.786-.524c2-.758,4.018-1.488,6.028-2.231,1.7-.628,3.367-1.413,5.074-1.932,1.4-.428,2.574-1.249,3.952-1.675,1.346-.416,2.59-1.147,3.91-1.66,1.176-.456,2.4-.8,3.6-1.2a.979.979,0,0,0,.37-.169c1.214-1.142,2.839-1.475,4.274-2.181.7-.344,1.38-.723,2.076-1.072q2.938-1.468,5.882-2.928a1.075,1.075,0,0,0,.344-.224c1.076-1.239,2.6-1.825,3.923-2.7a53.8,53.8,0,0,0,6.008-4.317c1.149-1.012,2.121-2.266,3.307-3.28a5.343,5.343,0,0,1,.852-.686,3.325,3.325,0,0,0,1.931-2.016c1.334-.723,1.638-2.31,2.8-3.258a15.108,15.108,0,0,0,2.3-3.19,11.149,11.149,0,0,1,1.286-1.749,11.275,11.275,0,0,0,3.051-4.324,13.622,13.622,0,0,1,.96-1.508c.426-.8.771-1.647,1.181-2.458a25.309,25.309,0,0,1,1.418-2.642,23.658,23.658,0,0,0,3.075-6.422c.347-1.174.905-2.283,1.323-3.439q.556-1.543,1.005-3.123c.317-1.122.559-2.265.857-3.394a71.746,71.746,0,0,0,2.323-16.307c.033-1.179-.107-2.362-.145-3.544-.027-.818-.019-1.638-.027-2.458a22.194,22.194,0,0,0-.888-6.081c-.463-1.573-.778-3.193-1.323-4.737a27.523,27.523,0,0,0-1.693-3.569c-.636-1.211-1.334-2.388-2.021-3.572a2.378,2.378,0,0,0-1.339-1.314,1.565,1.565,0,0,1-.675-.456,9.959,9.959,0,0,0-4.423-2.515c-.3-.1-.6-.339-.9-.339a3.116,3.116,0,0,1-2.62-1.157,8,8,0,0,0-1.924-1.229c-.307-.2-.7-.387-.848-.685-.73-1.471-2-2.58-2.641-4.127a14.283,14.283,0,0,0-1.749-2.629c-.5-.7-1.1-1.333-1.547-2.061a6.9,6.9,0,0,1-.947-2.1c-.4-1.912-1.64-3.367-2.579-4.979a22.181,22.181,0,0,0-1.943-2.49c-.085-.107-.217-.205-.245-.327-.334-1.408-1.575-2.083-2.448-3.055q-1.556-1.731-3.1-3.471c-.122-.137-.2-.344-.348-.421-1.264-.656-1.954-1.914-2.984-2.816a32.6,32.6,0,0,0-3.8-3.32,20.813,20.813,0,0,1-3.918-3.39,8.879,8.879,0,0,0-2.547-1.3c-.491-.241-.99-.468-1.463-.742a39.309,39.309,0,0,0-4.751-2.724,42.775,42.775,0,0,1-5.5-2.854c-.432-.252-.775-.668-1.216-.9a10.017,10.017,0,0,0-2.128-.889,7.5,7.5,0,0,1-3.245-1.316c-.349-.294-.971-.267-1.765-.459l-1.029-1.555Z" transform="translate(0 4.334)"/><path class="a" d="M1190.118,31.856c-.3.229-.489.481-.733.549-1.667.463-3.357.845-5.009,1.351a6.136,6.136,0,0,0-1.451,1c-.444.209-1,.5-1.576.733-.882.352-1.777.668-2.669.992-.212.077-.521.055-.638.2-.658.807-1.939.528-2.526,1.515-.144.241-.793.129-1.146.309-1.707.873-3.452,1.7-5.069,2.716a51.753,51.753,0,0,0-6.492,5.014,24.468,24.468,0,0,0-2.6,2.791,11.955,11.955,0,0,0-1.618,2.647,4.4,4.4,0,0,1-1.351,1.517c-.608.508-1.223,1.009-2.009,1.658a5.79,5.79,0,0,1-1.6-.994c-.74-.84-1.7-.808-2.627-.994-.309-.062-.685.025-.934-.12-1.508-.887-3.235-.665-4.825-.755a35.6,35.6,0,0,1-4.289-.4,11.74,11.74,0,0,0-2.786.187,7.2,7.2,0,0,1-2.056.082,10.2,10.2,0,0,0-3.686.068,4.424,4.424,0,0,0-.89.276c-.17.06-.339.241-.487.22-2.312-.321-4.464.959-6.769.658-.738-.1-1.53.359-2.246-.269-.115-.1-.688.155-.919.379-1.092,1.059-1.426,1.03-2.417-.391a2.725,2.725,0,0,1,2.023-.828,2.661,2.661,0,0,0,1.44-.344,10.961,10.961,0,0,1,4.506-1.126c1.486-.159,2.986-.2,4.478-.319a4.841,4.841,0,0,1,2.268.162,5.488,5.488,0,0,0,2.281-.134c.671-.072,1.336-.205,2.007-.274a12.24,12.24,0,0,0,1.78-.129,3.364,3.364,0,0,1,1.575.1,11.626,11.626,0,0,0,4.054.284,9.842,9.842,0,0,1,4.418.122,17.475,17.475,0,0,0,3.8.565,2.674,2.674,0,0,0,2.233-1.111,33.307,33.307,0,0,1,6.4-6c.526-.356.99-.8,1.483-1.2,1.122-.922,2.2-1.9,3.384-2.741a14.353,14.353,0,0,1,2.2-1.057,1.329,1.329,0,0,0,.553-.372.837.837,0,0,1,1.062-.367,1.814,1.814,0,0,0,1.637-.456,39.867,39.867,0,0,1,3.866-2.567,16.634,16.634,0,0,1,2.811-1.072,18.492,18.492,0,0,1,3.082-.969,16.823,16.823,0,0,0,4.19-1.525,1.44,1.44,0,0,1,.792-.112,1.687,1.687,0,0,0,1.285-.225C1189,30.685,1189.487,30.941,1190.118,31.856Z" transform="translate(30.762 4.345)"/><path class="a" d="M1106.058,52.943a8.561,8.561,0,0,1,.892-.738,14.649,14.649,0,0,0,1.4-.775c.717-.571,1.318-1.3,2.37-1.251.187.008.392-.2.573-.332a25.149,25.149,0,0,1,2.313-1.684c1.431-.812,2.913-1.543,4.406-2.24.57-.264,1.243-.292,1.842-.5.862-.3,1.69-.7,2.55-1a4.609,4.609,0,0,1,1.568-.347.865.865,0,0,1,.69,1.378,2.274,2.274,0,0,1-3.108.925,4.056,4.056,0,0,0-.424-.152c-.187.266-.371.523-.55.782-.13.187-.219.5-.386.544a22,22,0,0,1-3.534.894c-.519.062-.88.023-1.286.458a2.824,2.824,0,0,1-1.495.822c-1.673.274-1.682.222-2.017,1.7a9.025,9.025,0,0,0-4.077,2.094C1107.23,54.093,1107.033,54,1106.058,52.943Z" transform="translate(22.287 13.168)"/><path class="a" d="M1239.948,31.392a14.039,14.039,0,0,1-1.837-.013,20.253,20.253,0,0,1-5.064-1.1,25.663,25.663,0,0,0-4.914-1.066c-1.027-.19-2.071-.286-3.1-.449-1.411-.225-2.7-.939-4.176-.984-.536-.017-1.055-.593-1.724-1,1.076-.7,1.914-1.035,2.978-.493a5.606,5.606,0,0,0,1.722.336,9.449,9.449,0,0,1,2.163.306c1.687.695,3.636.534,5.183,1.64.149.107.356.149.473.277.7.775,1.421,1.314,2.433.433.129-.112.453-.073.658-.013,1.536.454,3.069.92,4.593,1.416a2.818,2.818,0,0,1,.693.491Z" transform="translate(98.064 1.072)"/><path class="a" d="M1208.806,25.446a37.71,37.71,0,0,0,4.08-.459,3.448,3.448,0,0,1,2.229.453,1.416,1.416,0,0,0,1.395.073c1.461-.755,2.846.105,4.252.377a.844.844,0,0,1,.468.468.742.742,0,0,1,0,.62c-.1.139-.461.267-.568.2-.568-.391-1.087-.105-1.66-.062a6.424,6.424,0,0,1-2.42-.347,9.66,9.66,0,0,0-3.385-.409,8.041,8.041,0,0,1-3.519-.361A8.969,8.969,0,0,1,1208.806,25.446Z" transform="translate(91.144 0.342)"/><path class="a" d="M1209.189,26.072c-1.193-.067-2.388-.212-3.579-.179-1.226.033-2.445.386-3.666-.038-1.159-.4-2.405.58-3.576-.12.037-.6.269-.8.785-.825,1.687-.075,3.37-.19,5.054-.3.449-.03.9-.109,1.343-.154a1.446,1.446,0,0,1,1.268.271c.309.262.925.13,1.368.281a6.992,6.992,0,0,1,1.144.631Z" transform="translate(84.149 0)"/><path class="a" d="M1170.514,29.1a1.925,1.925,0,0,1-2.071,1.625,7.957,7.957,0,0,0-4.346,1.745,1.82,1.82,0,0,1-1.623.257c-.171-.04-.374-.411-.376-.633a1.525,1.525,0,0,1,.843-1.455,4.93,4.93,0,0,1,3.318-.408,2.59,2.59,0,0,0,2.286-.506A6.507,6.507,0,0,1,1170.514,29.1Z" transform="translate(59.843 3.138)"/><path class="a" d="M1198.83,25.957a18,18,0,0,1-3.676.135.516.516,0,0,1-.381-.329.8.8,0,0,1,.219-.585C1196.3,24.038,1197.685,24.28,1198.83,25.957Z" transform="translate(81.74 0.038)"/><path class="a" d="M1236.459,30.8c-1.385.905-2.722.595-3.952-.912C1233.85,29.081,1235.077,29.364,1236.459,30.8Z" transform="translate(107.028 3.366)"/><path class="a" d="M1191.344,25.939c.506-.314.93-.58,1.358-.84.808-.491,1.366-.391,2.226.511a4.775,4.775,0,0,1-1.067.493,15.322,15.322,0,0,1-2.143.194C1191.588,26.3,1191.448,26.045,1191.344,25.939Z" transform="translate(79.442 0.26)"/><path class="a" d="M1209.444,25.351c-.5.2-1,.426-1.516.588a1.339,1.339,0,0,1-.8.035c-.217-.077-.493-.324-.514-.521s.2-.6.366-.635a6.142,6.142,0,0,1,1.624-.1,3.491,3.491,0,0,1,.93.331Z" transform="translate(89.677 0.193)"/><path class="a" d="M1175.75,28.258l-2.767.556c.6-.972,1.493-.947,2.178-1.266.127-.06.413.224.625.349Z" transform="translate(67.137 2.091)"/><path class="a" d="M1237.87,31.257c-.985.152-1.662-.489-2.417-.922a4.092,4.092,0,0,1,2.382.945Z" transform="translate(109.002 3.964)"/><path class="a" d="M1186.684,25.812c.434-.224.833-.334,1.072.621l-1.146-.242Z" transform="translate(76.269 0.83)"/><path class="a" d="M1175.448,27.552l.708.032.012.23-.716.055Z" transform="translate(68.789 2.099)"/><path class="a" d="M1168.734,29.34h-.929l-.01-.2.925-.1Z" transform="translate(63.661 3.1)"/></g></svg>