<svg xmlns="http://www.w3.org/2000/svg" width="429.395" height="366.732" viewBox="0 0 429.395 366.732"><g transform="translate(421.633 113.882) rotate(111)"><path d="M135.563-5.656a6.407,6.407,0,0,1,.928.007A10.244,10.244,0,0,1,140.945-4.3a3.093,3.093,0,0,0,.986.225,6.247,6.247,0,0,1,1.216.3c.174.078.207.394.3.6a3.314,3.314,0,0,0-.581.081,2.578,2.578,0,0,1-2.071-.4c-1.073-.5-2.375-.6-3.52-1a20.669,20.669,0,0,1-2.515-1.256A2.088,2.088,0,0,0,134.29-6c-1.624-.322-3.257-.613-4.878-.947a5.17,5.17,0,0,1-1.208-.46c-1.222-.607-2.63-.342-3.912-.663-.7-.175-1.437-.252-2.126-.452a12.244,12.244,0,0,0-4.507-.517,3.009,3.009,0,0,1-1.35-.475,2.977,2.977,0,0,0-1.945-.2,9.547,9.547,0,0,1-2.764-.159c-1.4-.186-2.8-.443-4.2-.656a1.917,1.917,0,0,0-.487.061,13.668,13.668,0,0,1-6.038-.146,2.465,2.465,0,0,0-1.693.229,11.8,11.8,0,0,1-2.852.379c-.2.02-.424-.073-.624-.045-.643.088-1.284.2-1.923.317a1.675,1.675,0,0,0-.548.147,4.749,4.749,0,0,1-2.457.464,30.774,30.774,0,0,0-3.644.541c-.292.042-.6-.032-.9-.011a1.122,1.122,0,0,0-.575.17A12.114,12.114,0,0,1,81-6.485a11.552,11.552,0,0,0-1.92.774c-1.729.812-3.444,1.647-5.164,2.472-.048.024-.1.074-.144.068-1.344-.207-1.876.659-2.693,1.343-.672.562-1.864.647-2.989.995C68.085.285,66.6.354,65.7.967a10.414,10.414,0,0,0-1.275.772A8.3,8.3,0,0,1,61.876,3.23c-.577.245-.914.906-1.387,1.358a5.544,5.544,0,0,1-.777.57,13.547,13.547,0,0,0-1.237.8c-.593.5-1.116,1.062-1.7,1.574a10.372,10.372,0,0,1-1.107.822,14.309,14.309,0,0,1-2.044,1.3,4.858,4.858,0,0,0-1.986,1.724,13.171,13.171,0,0,1-1.85,1.56c-.718.651-1.379,1.349-2.071,2.021-.329.32-.7.607-1.005.942s-.51.695-.79,1.026c-.3.349-.649.662-.94,1.014-1.244,1.508-2.459,3.035-3.717,4.535-.981,1.171-2.012,2.309-3.016,3.464a.638.638,0,0,0-.18.316,2.488,2.488,0,0,1-1.868,2.069.793.793,0,0,0-.421.678c.254,1.142-.468,1.976-1.025,2.882s-1.048,1.847-1.564,2.774c-.444.8-.916,1.583-1.314,2.4-.636,1.3-1.191,2.63-1.836,3.927-.545,1.1-1.178,2.159-1.753,3.245-.265.5-.492,1.017-.725,1.529q-.631,1.38-1.249,2.764c-.451,1.008-.866,2.03-1.352,3.025-1.176,2.408-1.9,4.95-2.854,7.424-1.033,2.687-1.746,5.469-2.542,8.222-.335,1.162-.5,2.358-.784,3.531-.318,1.317-.68,2.624-1.022,3.936-.073.282-.16.565-.206.851-.416,2.6-.672,5.224-1.291,7.782a39.714,39.714,0,0,0-.465,4.632c-.185,1.5-.569,2.976-.727,4.474-.117,1.113.148,2.266-.044,3.363a25.221,25.221,0,0,0,.1,4.807,37.971,37.971,0,0,1,.118,4.017,8.079,8.079,0,0,0,.377,3.006,17.248,17.248,0,0,1,.13,2.436c.213,1.674.5,3.34.758,5.01.106.692.223,1.384.3,2.081.144,1.308.207,2.624.407,3.925.277,1.806.749,3.594.945,5.407a8.25,8.25,0,0,0,1.57,3.521.456.456,0,0,1,.091.272c-.226,1.68.465,3.2,1.02,4.755a3.672,3.672,0,0,1,.132,1,6.3,6.3,0,0,0,.528,2.6c.2.391.018.932.024,1.4,0,.207-.05.475.074.611a9.817,9.817,0,0,1,1.894,4.446c.345,1.3.89,2.567,1.334,3.852.428,1.239.8,2.494,1.269,3.722.625,1.635,1.331,3.246,1.974,4.877a10.253,10.253,0,0,1,.409,1.465c.112.491.127,1,.285,1.479.5,1.518,1.058,3.024,1.579,4.538.53,1.54,1.008,3.093,1.582,4.62.2.533.672.983.925,1.506.533,1.1.93,2.248,1.515,3.322a50.806,50.806,0,0,0,2.734,5.254,21.921,21.921,0,0,1,1.761,3.473c.693,1.5,1.234,3.059,2.03,4.514.763,1.392,1.119,2.957,2.4,4.152a17.626,17.626,0,0,1,1.39,2.119c1.235,1.548,1.528,3.538,3.129,4.927.45.39.438,1.168.857,1.61a32.433,32.433,0,0,1,2.6,3.9c1.509,2.111,3.02,4.222,4.619,6.282.8,1.03,1.818,1.929,2.7,2.917s2.056,1.924,2.478,3.059c.528,1.422,2.054,2.142,2.565,3.484.059.156.263.281.288.435.263,1.655,1.788,2.664,2.687,3.989a31.184,31.184,0,0,0,2.419,2.676c.257.3.332.711.569,1.025.6.8,1.275,1.561,1.882,2.358a50.424,50.424,0,0,1,3.776,5.053,11.657,11.657,0,0,0,1.579,1.627c.624.687,1.185,1.416,1.794,2.115,1.078,1.236,2.179,2.455,3.253,3.693.774.89,1.5,1.809,2.286,2.691.209.235.6.342.814.576.84.918,1.626,1.872,2.462,2.794q1.319,1.458,2.693,2.875c.649.666,1.349,1.294,2.024,1.941.739.711,1.532,1.386,2.2,2.144.964,1.1,2.589,1.642,3.229,3.012.1.215.46.332.678.515.335.282.651.581.972.874.132.121.241.261.383.37.755.574,1.541,1.119,2.271,1.717a7.513,7.513,0,0,0,1.571,1.3,9.337,9.337,0,0,1,1.883,1.67c.4.353.84.668,1.252,1.011.654.542,1.282,1.111,1.956,1.634a15.837,15.837,0,0,0,1.426.926,15.873,15.873,0,0,1,1.818,1.106c.613.505,1.064,1.158,1.65,1.692a12.756,12.756,0,0,0,1.538,1.131c.58.386,1.191.737,1.788,1.1.067.041.162.078.186.137.513,1.217,1.833,1.721,2.963,2.2,1.261.536,1.97,1.593,3.181,2.106a.118.118,0,0,1,.058.05c.491,1.285,1.992,1.322,3.055,1.9A7.3,7.3,0,0,1,129.3,282.9a2.4,2.4,0,0,0,1.276.834,17.331,17.331,0,0,1,2.975,1.452,26.391,26.391,0,0,0,2.615,1.333,22.724,22.724,0,0,1,2.274,1.05,28.547,28.547,0,0,0,3.683,1.983,22.446,22.446,0,0,1,3.523,1.969c.159.091.315.3.456.288,1.051-.084,1.723.6,2.512.977,1.319.639,2.51,1.475,3.814,2.14a25.121,25.121,0,0,0,2.613,1.007c.151.058.363.07.451.168,1.025,1.158,2.684,1.358,4,2.067.733.394,1.372.923,2.107,1.309s1.565.6,2.282,1c.984.541,1.858,1.24,2.857,1.754,1.272.655,2.619,1.2,3.936,1.782.291.129.592.239.886.362a3.5,3.5,0,0,0,1.113.452,5.372,5.372,0,0,1,2.9,1.1,6.658,6.658,0,0,0,1.261.454c1.178.436,2.375.841,3.523,1.333.781.336,1.456.87,2.247,1.18.9.354,1.894.526,2.82.837,1.223.407,2.415.89,3.635,1.306a20.078,20.078,0,0,1,2.86.915,15.451,15.451,0,0,0,4.121,1.257c.657.139,1.3.326,1.941.513,1.447.424,2.9.835,4.327,1.312.425.142.733.541,1.154.712.758.309,1.561.534,2.344.794l5.583,1.855c.35.117.7.233,1.052.351a3.74,3.74,0,0,1,.675.243c.869.508,1.723,1.038,2.584,1.554a.771.771,0,0,0,.368.149,6.108,6.108,0,0,1,3.62,1.087,9.1,9.1,0,0,0,2.4.882c.542.164.886-.2.751-.686-.265-.961-.469-1.936-.769-2.888a14.941,14.941,0,0,0-.689-1.443c-.342-.778-.689-1.558-.975-2.354a11.289,11.289,0,0,1-.793-2.618c-.124-1.227-.719-2.346-.849-3.562a8.6,8.6,0,0,0-.38-1.4c-.053-.187-.215-.4-.16-.553.444-1.269-.362-2.406-.575-3.585a16.942,16.942,0,0,0-.783-3.468c-.507-1.232-.28-2.463-.537-3.675-.2-.96-.316-1.936-.424-2.908a1.589,1.589,0,0,1,.129-.991,2.478,2.478,0,0,0,.055-2.026c-.164-.845-.2-1.708-.291-2.562-.041-.374-.118-.747-.141-1.122-.024-.423.011-.849-.012-1.272-.02-.393-.076-.785-.129-1.176a5.286,5.286,0,0,1-.114-.562c-.036-2.134-.107-4.269-.073-6.4.027-1.607.215-3.211.289-4.818a8.372,8.372,0,0,0-.16-1.361c-.05-.42-.109-.841-.133-1.262-.036-.621-.059-1.243-.062-1.863,0-.671.054-1.342.033-2.013-.035-1.072-.111-2.143-.173-3.213-.039-.69-.07-1.379-.133-2.067-.153-1.625-.359-3.245-.472-4.872-.058-.8.123-1.609.045-2.4a20.861,20.861,0,0,0-.519-2.349c-.064-.294-.227-.659-.1-.885a7.508,7.508,0,0,0,.615-3.96c0-1.012-.086-2.024-.123-3.036-.027-.736,0-1.475-.062-2.208-.2-2.559-.4-5.118-.654-7.673a13.094,13.094,0,0,1,.073-4.265,5.269,5.269,0,0,0-.048-1.635,46.976,46.976,0,0,1,.16-6.751,13.374,13.374,0,0,0-.491-2.9c-.009-.046-.058-.088-.064-.134-.126-1.187-.238-2.376-.377-3.563-.077-.655-.238-1.306-.286-1.963a2.608,2.608,0,0,1,.15-1.182,2.275,2.275,0,0,0-.017-1.823,3.484,3.484,0,0,1-.229-1.772,9.692,9.692,0,0,0-.428-4.413,4.557,4.557,0,0,1-.12-1.339c.014-1.522.12-3.047.068-4.567-.041-1.221-.248-2.439-.4-3.655-.156-1.24-.371-2.475-.486-3.716-.035-.383.35-.829.239-1.17-.4-1.236-.129-2.528-.4-3.729-.368-1.631.194-3.155.21-4.728.006-.591.094-1.182.145-1.773.008-.1.064-.245.015-.281-.781-.557-.159-1.232-.22-1.847-.062-.643-.147-1.285-.177-1.93a9.141,9.141,0,0,1-.006-2.318,15.419,15.419,0,0,0,0-3.29c0-1.245-.1-2.489-.089-3.734,0-.719.132-1.438.206-2.158.011-.1.082-.214.041-.281-.553-.89-.142-1.837-.2-2.753-.089-1.33-.035-2.668-.065-4-.023-1-.1-2-.12-3-.024-1.418-.012-2.837-.017-4.254-.006-1.513-.033-3.026-.012-4.539a13.423,13.423,0,0,1,.212-1.391,2.117,2.117,0,0,0-.014-.751c-.056-.231-.365-.479-.307-.654a6.273,6.273,0,0,0-.132-2.772c-.124-1.133-.289-2.262-.43-3.394a9.2,9.2,0,0,1-.136-1.434c.059-1.729.159-3.457.239-5.185a1.057,1.057,0,0,0-.047-.286c-.3-1.225-.609-2.448-.881-3.679a8.1,8.1,0,0,1,.024-.853,11.008,11.008,0,0,0-.244-1.435,8.374,8.374,0,0,1-.353-.947c-.227-2.013-.418-4.029-.621-6.043-.011-.1,0-.212-.051-.282-1.008-1.27-.114-2.814-.772-4.14-.079-.156.094-.414.16-.621.15-.464.371-.932-.3-1.256-.091-.044-.132-.207-.15-.321-.23-1.343-.442-2.689-.677-4.031-.182-1.038-.419-2.07-.575-3.111-.12-.789-.151-1.589-.224-2.383a.913.913,0,0,0-.03-.214c-.312-.981-.645-1.959-.937-2.944-.3-1.029-.556-2.07-.858-3.1-.121-.415-.356-.8-.463-1.221a1.577,1.577,0,0,1-.042-.977,3.513,3.513,0,0,0-.079-2.616,1.782,1.782,0,0,1-.12-.631,2.4,2.4,0,0,0-.4-1.965c-.419-.529-.18-1.439-.315-2.168-.2-1.1-.478-2.193-.718-3.29a13.685,13.685,0,0,0-.38-1.736,8.285,8.285,0,0,0-.815-1.351c.6-.658.282-1.479.061-2.293a25.024,25.024,0,0,0-.716-2.518c-.466-1.2-1.046-2.368-1.561-3.555-.165-.383-.241-.8-.422-1.174s-.483-.7-.652-1.079a2,2,0,0,1-.307-1.14c.31-1.231-.5-2.16-.927-3.2a19.039,19.039,0,0,1-.668-2.353,19.45,19.45,0,0,0-.5-1.923c-.324-.863-.768-1.692-1.12-2.549-.277-.671-.453-1.377-.745-2.042-.78-1.778-1.6-3.543-2.4-5.318-.177-.394-.248-.829-.457-1.207-.3-.552-.7-1.064-1.034-1.6a3.65,3.65,0,0,1-.3-.668,9.66,9.66,0,0,0-.616-1.623c-.547-.906-1.279-1.727-1.8-2.643-.545-.968-.924-2.006-1.384-3.012-.162-.351-.333-.7-.528-1.038-.338-.587-.674-1.178-1.055-1.744-.406-.6-.871-1.176-1.3-1.769q-1.015-1.412-2.009-2.835c-.483-.692-.96-1.388-1.417-2.093-.227-.35-.356-.755-.616-1.079-.778-.965-1.618-1.891-2.4-2.858-.413-.516-.7-1.11-1.122-1.621-.575-.7-1.22-1.351-1.839-2.02-.1-.11-.26-.188-.338-.309-.725-1.122-1.425-2.256-2.162-3.372a6.715,6.715,0,0,0-.731-.78,7.754,7.754,0,0,1-1.789-2.046c-.251-.566-1.257-.843-1.671-1.4-.512-.679-1.655-1.081-1.767-1.662-.236-1.216-1.484-1.465-2.091-2.262a7.538,7.538,0,0,1-.409-.674,3.8,3.8,0,0,1,3.107.772,5.231,5.231,0,0,1,1.217.833c.522.552.907,1.2,1.417,1.765a3.315,3.315,0,0,0,1.142.877c1.029.415,1.058,1.308,1.44,2.037.1.183.185.487.329.513a6.226,6.226,0,0,1,2.256,1.212c.268.168.643.329.739.565.634,1.574,2.5,2.272,3.341,3.687.213.359.392.735.583,1.1.091.174.12.41.271.512a3.876,3.876,0,0,1,1.6,2.12c.139.446.73.769,1.046,1.188q1.583,2.1,3.105,4.229a1.247,1.247,0,0,1,.263.813,1.025,1.025,0,0,0,.686,1.122,3.9,3.9,0,0,1,1.761,1.841,14.533,14.533,0,0,0,1.234,1.749c.266.393.456.825.715,1.223a7.687,7.687,0,0,0,.6.712c.216.481.413.987.668,1.471.333.633.775,1.228,1.043,1.879a6.47,6.47,0,0,1,.142,1.321,1.081,1.081,0,0,0,.342.581c.2.178.6.233.707.428.463.818.834,1.676,1.273,2.506.6,1.127,1.243,2.232,1.821,3.364a11.793,11.793,0,0,1,.534,1.5c.312.9.631,1.79.93,2.689.248.747.441,1.509.718,2.248.2.526.527,1.013.737,1.537a43.081,43.081,0,0,0,1.662,4.143,2.991,2.991,0,0,1,.245,2.026,1.4,1.4,0,0,0,.507,1.044,2.259,2.259,0,0,1,.778,1.435,16.445,16.445,0,0,0,.967,2.615,5.036,5.036,0,0,1,.2.842c.171.912.285,1.834.518,2.733.215.833.556,1.639.843,2.457.015.045.092.09.082.122-.291.9.236,1.664.524,2.472a17.626,17.626,0,0,1,.516,1.782c.16.666.248,1.345.415,2.008.177.712.439,1.408.6,2.122.111.476.1.972.174,1.456a3.465,3.465,0,0,0,.242.766c.076.178.265.329.3.508a19.5,19.5,0,0,1,.646,3.622,8.219,8.219,0,0,0,.854,3.521,13.978,13.978,0,0,1,.613,3.386,9.07,9.07,0,0,0,.418,1,4.084,4.084,0,0,1,.2.975,4.9,4.9,0,0,0,.026,1.343,6.276,6.276,0,0,1,.263,3.469,1.077,1.077,0,0,0,.065.5,15.1,15.1,0,0,1,.689,3.8,21.35,21.35,0,0,0,.849,3.608,11.912,11.912,0,0,1,.581,2.884,7.735,7.735,0,0,0,.544,2.912,4.92,4.92,0,0,1,.121,1.292c.132,1.668.992,3.266.946,4.9a17,17,0,0,0,.285,3.163,8.91,8.91,0,0,1,.038,1.842,5.35,5.35,0,0,1-.257.919c-.051.215-.159.477-.07.651a6.832,6.832,0,0,1,.512,3.681,18.257,18.257,0,0,0-.13,2.967c.123,1.187.5,2.351.722,3.531a2.615,2.615,0,0,1-.12.862c-.026.156-.147.351-.082.461.762,1.285.586,2.677.64,4.041a23.678,23.678,0,0,1-.047,4.867c-.18,1.1.3,2.264.4,3.405a22.542,22.542,0,0,1-.024,2.476c-.021.808-.061,1.615-.088,2.423,0,.1.064.212.02.284-.7,1.159-.207,2.357-.173,3.539.006.191.035.443-.083.566-.566.583-.2,1.1.033,1.667a3.527,3.527,0,0,1,.212,1.266c.029,1.651.021,3.3.026,4.956,0,.024.018.057.006.072-.922,1.044.183,2.094-.011,3.146a8.984,8.984,0,0,0-.124,1.636c0,1.2.05,2.4.067,3.6.017,1.294,0,2.59.032,3.884.024,1,.129,2,.141,3,.021,1.684-.039,3.371.006,5.055.026.935.218,1.867.292,2.8.1,1.286.159,2.575.236,3.863a4.156,4.156,0,0,0,.039.434c.2,1.18.456,2.355.581,3.541.074.705-.106,1.428-.083,2.142.047,1.465.147,2.929.239,4.393.07,1.1.157,2.2.244,3.3q.236,3.063.48,6.127c.127,1.632.268,3.265.369,4.9.077,1.282.088,2.569.156,3.851.071,1.334.185,2.664.257,4a7.993,7.993,0,0,1-.1.861c-.023.406-.036.813-.024,1.219.015.517.064,1.034.088,1.55.008.145-.077.316-.015.431.371.7.1,1.4.1,2.106.008,1.818.147,3.64.316,5.454.136,1.463.188,2.925.23,4.391.018.671.162,1.339.188,2.01.02.54-.1,1.085-.079,1.626.045,1.435.121,2.868.2,4.3.073,1.308.224,2.615.229,3.923,0,.9-.232,1.79-.274,2.688a18.888,18.888,0,0,0,.118,2c.051.834.1,1.668.138,2.5.048,1.1.076,2.209.124,3.314.065,1.487.259,2.977.179,4.457a18.06,18.06,0,0,0,.189,3.794c0,.024.018.053.008.07-.964,1.52.227,3.115-.21,4.669a5.745,5.745,0,0,0,.083,1.723,51.549,51.549,0,0,0,.341,5.147,45.43,45.43,0,0,1,.009,4.763,23.166,23.166,0,0,0,.442,2.7,32.717,32.717,0,0,1,.659,4.7,14.629,14.629,0,0,0,.619,3.482,21.546,21.546,0,0,1,.871,3.764,14.959,14.959,0,0,0,1.143,4.439c.3.772.542,1.558.84,2.33a7.906,7.906,0,0,0,.484.9c.08.151.265.339.218.451-.506,1.182.518,2.087.763,3.126.2.845.451,1.687.671,2.536a10.445,10.445,0,0,0,1.247,2.234,2.546,2.546,0,0,1,.326.79,1.534,1.534,0,0,0,1.314,1.326,3.606,3.606,0,0,1,1.116.444,12.694,12.694,0,0,0,4.2,1.6c1.27.292,2.436,1,3.712,1.179,1.334.187,2.312.924,3.514,1.264,1.261.357,2.536.678,3.812.995a38.732,38.732,0,0,0,4.787,1.113c1.564.182,3.1.809,4.714.448a1.255,1.255,0,0,0,.828-.67c.224-.835.307-.891,1.247-.546a3.755,3.755,0,0,0,1.04.068l.062-.229a11.285,11.285,0,0,0,.5,1.126A3,3,0,0,0,260.7,332.8c1.3.215,2.556.61,3.853.8.99.149,1.326.739,1.3,1.4a15.138,15.138,0,0,1-.548,2.822.7.7,0,0,1-.494.419c-1.17.076-2.345.1-3.517.129-.274.007-.55-.069-.821-.056-1.26.058-1.685.736-1.175,1.74a1.931,1.931,0,0,1,.074.927,5.7,5.7,0,0,1-.132,1.276c-.215.8-.553,1.57-.751,2.37a5.17,5.17,0,0,1-2.191,2.9c-.686.5-1.249,1.131-1.924,1.646a1.552,1.552,0,0,1-1.6.288c-1.013-.419-2.244-.119-3.143-.481-.942-.379-2.062-.244-2.911-.973a4.929,4.929,0,0,0-2.224-.68,2.923,2.923,0,0,1-1.269-.6,12.664,12.664,0,0,0-2.568-1.411,4.843,4.843,0,0,1-1.756-1.423,4.294,4.294,0,0,0-1.3-.953,4.233,4.233,0,0,1-1.62-1.269c-.556-.671-1.325-1.2-1.947-1.837-.487-.5-.884-1.062-1.337-1.587s-.924-1.044-1.393-1.561c-.322-.353-.643-.705-.989-1.041-.2-.2-.462-.354-.68-.541a1.811,1.811,0,0,1-.315-.359q-.572-.861-1.128-1.732c-.089-.139-.263-.357-.21-.428.434-.579-.1-.951-.354-1.37-.807-1.327-1.615-2.655-2.466-3.961a1.961,1.961,0,0,0-.855-.729c-1.677-.664-3.375-1.29-5.079-1.9-1.39-.5-2.836-.885-4.192-1.443-1.6-.658-3.12-1.449-4.678-2.179a3.528,3.528,0,0,0-.442-.167c-.709-.224-1.42-.442-2.127-.667-1.238-.4-2.484-.769-3.7-1.2a12.09,12.09,0,0,0-2.366-.942c-1.238-.15-2.011-1.134-3.284-1.17a6.146,6.146,0,0,1-1.579-.471c-1.34-.428-2.683-.853-4.021-1.286a32.116,32.116,0,0,1-4.216-1.436,13.983,13.983,0,0,0-2.97-.932c-.08-.019-.209-.015-.233-.057-.524-.931-1.69-.684-2.524-.963-1.615-.538-3.2-1.148-4.813-1.687-1.366-.455-2.627-1.142-3.959-1.678a16.7,16.7,0,0,1-1.714-.475c-1.34-.731-2.976-.943-4.16-1.981a10.8,10.8,0,0,0-2.148-1.013c-1.2-.617-2.347-1.306-3.553-1.908-2.589-1.292-5.2-2.546-7.8-3.817a1.126,1.126,0,0,1-.215-.109c-1.7-1.308-3.806-2.058-5.636-3.183a2.959,2.959,0,0,0-1.638-.725.419.419,0,0,1-.307-.214c-.241-.59-.857-.553-1.385-.745-1.128-.409-2.192-.957-3.275-1.461a15.364,15.364,0,0,1-2.369-1.179c-.55-.387-1.335-.568-1.624-1.251-.059-.138-.4-.191-.615-.268-.577-.2-1.188-.35-1.732-.606-1.627-.771-2.979-1.959-4.831-2.407-.327-.078-.56-.443-.849-.662-.857-.65-1.714-1.3-2.59-1.932a8.331,8.331,0,0,0-.793-.37c-.9-.5-1.8-1-2.671-1.528-.889-.54-1.768-1.094-2.609-1.69-.431-.306-.715-.784-1.163-1.061-.952-.59-1.992-1.07-2.952-1.65a23.584,23.584,0,0,1-2.439-1.666c-.836-.66-1.584-1.407-2.377-2.11a9.634,9.634,0,0,0-.846-.679c-.5-.353-1.036-.678-1.541-1.029-1.193-.829-2.406-1.64-3.558-2.512-.845-.638-1.6-1.366-2.412-2.041a2.714,2.714,0,0,0-.56-.28c-.186-.09-.518-.16-.536-.269-.115-.735-.822-1.017-1.375-1.366A11.5,11.5,0,0,1,99.709,264c-.4-.419-.937-.732-1.356-1.136-.653-.627-1.258-1.292-1.88-1.94a2.728,2.728,0,0,0-.31-.337c-.987-.725-2-1.422-2.967-2.171a20.227,20.227,0,0,1-2.263-1.952c-1.434-1.512-2.792-3.078-4.175-4.626-1.765-1.975-3.5-3.969-5.294-5.922-1.285-1.4-2.657-2.738-3.962-4.124-.271-.289-.377-.692-.627-1-.637-.788-1.3-1.561-1.976-2.326-1.216-1.377-2.474-2.727-3.665-4.119-.813-.953-1.57-1.947-2.3-2.951s-1.367-2.042-2.1-3.038c-.333-.455-.815-.825-1.19-1.26-.727-.839-1.425-1.7-2.135-2.55q-1.19-1.424-2.38-2.851c-.114-.135-.345-.265-.341-.394.056-1.654-1.582-2.366-2.48-3.488-.3-.382-.491-.835-.771-1.233-.616-.877-1.228-1.758-1.9-2.6-.356-.442-.861-.788-1.263-1.2a22.413,22.413,0,0,1-1.726-1.907,7.764,7.764,0,0,1-.675-1.39c-.118-.243-.191-.562-.406-.7-1.485-.936-1.8-2.543-2.843-3.741a31.8,31.8,0,0,1-2.687-3.858c-.615-.961-1.1-1.988-1.676-2.968-.3-.512-.73-.965-1.029-1.477-.813-1.386-1.591-2.788-2.375-4.187-.327-.582-.607-1.184-.963-1.752a9.693,9.693,0,0,0-.846-1.045c-.111-.131-.286-.237-.342-.381-.333-.866-.613-1.746-.967-2.6a5.662,5.662,0,0,0-.627-.9,3.231,3.231,0,0,1-.313-.556c-.253-.6-.5-1.209-.725-1.821s-.371-1.251-.659-1.838c-.374-.764-.851-1.488-1.287-2.227-.223-.378-.48-.743-.677-1.13-.752-1.485-1.517-2.968-2.216-4.474-.348-.748-.5-1.565-.849-2.315-.55-1.194-1.231-2.341-1.762-3.538a6.187,6.187,0,0,1-.593-2.17,5,5,0,0,0-.843-1.975,26.651,26.651,0,0,1-1.037-2.643c-.3-.831-.577-1.67-.843-2.51-.362-1.135-.69-2.278-1.057-3.412a8.483,8.483,0,0,0-1.9-3.917c-.147-.143-.12-.442-.132-.67a10.533,10.533,0,0,0-.088-1.847c-.265-1.1-.643-2.177-1.011-3.256-.164-.473-.421-.923-.63-1.386a4.171,4.171,0,0,1-.212-.522c-.306-1.012-.646-2.02-.893-3.043-.213-.89-.341-1.8-.465-2.7a4.649,4.649,0,0,0-.958-2.525.92.92,0,0,1-.174-.732,2,2,0,0,0-.325-1.571,9.52,9.52,0,0,1-.807-2.329,11.9,11.9,0,0,1-.173-1.455,3.364,3.364,0,0,0-.215-1.064c-.727-1.431-.743-3.016-1.249-4.458s-.216-2.883-.695-4.3a13.985,13.985,0,0,1-.359-3.8c-.032-.65.085-1.306-.53-1.822a.528.528,0,0,1-.173-.324c-.12-1.016-.292-2.03-.318-3.047-.041-1.61.083-3.222.017-4.83a23.427,23.427,0,0,0-.472-2.882.728.728,0,0,1,.008-.357,4.81,4.81,0,0,0-.079-2.544,8.025,8.025,0,0,1-.083-3.943.8.8,0,0,0-.011-.427,6.384,6.384,0,0,1,.433-3.5,7.82,7.82,0,0,0,.114-2.052c0-.121-.058-.249-.027-.361.7-2.49.492-5.075,1.017-7.583a.152.152,0,0,0,.011-.072c-.587-1.906.743-3.586.842-5.423a16.134,16.134,0,0,1,.771-2.993c.133-.516.218-1.041.338-1.56.389-1.7.752-3.407,1.188-5.1.333-1.285.789-2.545,1.138-3.826.242-.887.4-1.792.59-2.687a4.733,4.733,0,0,1,.179-.769q.99-2.5,2.014-5a1.937,1.937,0,0,1,.4-.545,2.121,2.121,0,0,0,.522-1.445,9.79,9.79,0,0,1,.76-2.977c.489-1.187,1.429-2.268,1.711-3.477.378-1.623,1.506-2.867,2.219-4.31.666-1.35,1.232-2.737,1.891-4.09.289-.593.808-1.109,1.034-1.713.466-1.255,1.637-2.177,1.771-3.648.1-1.087,1.064-2.118,1.67-3.163.471-.813.949-1.624,1.482-2.407.992-1.455,2.014-2.895,3.046-4.328.5-.688,1.037-1.351,1.568-2.021q1.644-2.071,3.3-4.134a3.173,3.173,0,0,1,1.243-1.068c.519-.228.78-.889,1.188-1.333.872-.948,1.746-1.9,2.657-2.814.89-.894,1.8-1.776,2.755-2.615.671-.59,1.438-1.1,2.153-1.648,1.347-1.045,2.669-2.118,4.038-3.14.84-.629,1.773-1.163,2.622-1.785.681-.5,1.282-1.081,1.95-1.6a4.169,4.169,0,0,1,1.067-.6,3.032,3.032,0,0,0,1.956-1.449,1.18,1.18,0,0,1,.536-.508c.789-.385,1.594-.743,2.407-1.086.516-.219,1.051-.4,1.585-.586.421-.143.892-.147.96-.739.021-.18.7-.32,1.087-.446a5.174,5.174,0,0,0,.9-.215c1.4-.8,2.766-1.632,4.157-2.436a5.239,5.239,0,0,1,.831-.285,53.7,53.7,0,0,0,5.3-1.93,13.517,13.517,0,0,1,4.687-1.176c.1-.011.254-.036.3-.1.412-.59,1.108-.532,1.75-.627,1.367-.2,2.722-.483,4.1-.631,1.414-.153,2.846-.187,4.271-.271,1.266-.073,2.534-.2,3.8-.2a22.823,22.823,0,0,1,5.73.261c.562.145,1.267-.21,1.9-.2a34.751,34.751,0,0,1,4.34.2c1.879.257,3.721.717,5.585,1.062,1.593.293,3.207.5,4.786.837.808.174,1.546.585,2.338.833a22.078,22.078,0,0,0,2.739.727,6.945,6.945,0,0,1,2.077.68,22.373,22.373,0,0,0,3.152.92,6.724,6.724,0,0,1,1.8.914C135.41-6.539,135.412-6.09,135.563-5.656Zm95.188,334.3a3.1,3.1,0,0,0,.177.847c.589.955,1.222,1.89,1.817,2.842.7,1.126,1.22,2.367,2.6,3.054.107.053.16.194.238.293a14.631,14.631,0,0,0,3.523,3.578c.527.342,1.037.687,1.59,1.011a30.321,30.321,0,0,1,2.469,1.863,17,17,0,0,0,1.729,1.122,13.574,13.574,0,0,0,1.782.83,2.633,2.633,0,0,0,1.37.3,1.173,1.173,0,0,1,1.325.3,7.854,7.854,0,0,0,.677.561,3.712,3.712,0,0,1,.587-.2c.828-.149,1.93.269,2.272-.866.009-.028.1-.057.145-.053.925.062,1.216-.53,1.5-1.117.274-.561.765-1.137.743-1.692a36.288,36.288,0,0,0-.55-4.293c-.071-.444-.35-.851.024-1.309.074-.09-.165-.411-.307-.6-.448-.59-1.319-.2-1.785-.5-1.447-.93-3.191-.446-4.734-.916-1.8-.55-3.706-.855-5.517-1.39a15.045,15.045,0,0,0-3.5-1,3.005,3.005,0,0,1-.781-.215c-.534-.182-1.057-.391-1.594-.565-1.464-.475-2.933-.936-4.4-1.406C231.772,329,231.4,328.864,230.751,328.641Z" transform="translate(0 0)"/><path d="M104.451-2.538c-.88.672-1.107-.338-1.641-.624.2-.373.46-.39.8-.193a7.2,7.2,0,0,0,1.932,1.013c.746.153.948.739,1.4,1.125a8.447,8.447,0,0,0,1.251.777c.305.179.622.34.988.54-.322.35-.283.626.069.841C108.4,1.456,104.576-1.324,104.451-2.538Z" transform="translate(48.73 -0.491)"/></g></svg>